<svg xmlns="http://www.w3.org/2000/svg" width="102.192" height="116.258" viewBox="0 0 102.192 116.258">
  <g id="CI" transform="translate(9.164 -0.876)">
    <g id="그룹_943" data-name="그룹 943">
      <g id="그룹_942" data-name="그룹 942" transform="translate(-8.788 6.775)">
        <path id="패스_14006" data-name="패스 14006" d="M32.963,80.957a8.667,8.667,0,0,0-7.37,4.1V80.961H19.378l-.935,0a8.672,8.672,0,0,0-7.181,3.792V80.964H5.932V98.257h5.329V94.474a8.667,8.667,0,0,0,7.181,3.791l.47,0h6.681V94.168a8.665,8.665,0,0,0,7.371,4.1l.47,0h8.972V93.581H33.336l.011.007a3.956,3.956,0,0,1-3.2-1.635H42.407V87.271H30.165a3.947,3.947,0,0,1,3.182-1.62l.6-.008h8.459V80.961H33.9ZM18.815,93.581l.01.007a3.968,3.968,0,0,1,0-7.937l.6-.008h5.829a8.607,8.607,0,0,0,0,7.937Z" transform="translate(-1.657 -22.565)" fill="#fff"/>
        <path id="패스_14007" data-name="패스 14007" d="M97.754,81.223l-.322-.08a17.653,17.653,0,0,0-8.189.015l-.234.058a8.664,8.664,0,0,0-5.039,3.635V80.925H74.527a8.658,8.658,0,0,0-8.406,6.532,8.656,8.656,0,0,0-8.4-6.532l-.935,0H48.273V85.61h8.459l.6.007A3.968,3.968,0,0,1,61.3,89.586a4.013,4.013,0,0,1-3.963,3.959l-9.065,0v.107h0v10.677H53.6v-6.1h3.645l.47,0A8.658,8.658,0,0,0,66.121,91.7a8.663,8.663,0,0,0,8.406,6.534l.471,0h8.971V94.313a8.67,8.67,0,0,0,5.039,3.635l.234.058a17.621,17.621,0,0,0,8.189.013l.322-.078a8.643,8.643,0,0,0,6.419-8.352v-.013a8.64,8.64,0,0,0-6.419-8.352M83.527,93.546H74.9l.011.005a3.968,3.968,0,1,1,0-7.936l.6-.005h8.021a8.588,8.588,0,0,0-.967,3.965l0,.013a8.6,8.6,0,0,0,.964,3.958M99.08,89.6a3.975,3.975,0,0,1-2.9,3.824c-.179.05-.365.077-.549.111a13,13,0,0,1-4.5,0l-.577-.116A3.972,3.972,0,0,1,87.658,89.6v-.012a3.973,3.973,0,0,1,2.9-3.825c.179-.049.364-.078.549-.111a12.955,12.955,0,0,1,4.5,0l.575.116a3.972,3.972,0,0,1,2.893,3.822Z" transform="translate(-6.418 -22.533)" fill="#fff"/>
      </g>
      <g id="그룹_981" data-name="그룹 981" transform="translate(-22.163 91.57)">
        <g id="그룹_983" data-name="그룹 983" transform="translate(12.999 6.003)">
          <g id="그룹_984" data-name="그룹 984" transform="translate(13.647 0)">
            <path id="패스_14229" data-name="패스 14229" d="M35.756.12a3.909,3.909,0,1,0,0,7.818l.065.009h1.31V6.2H35.756a2.162,2.162,0,1,1,0-4.323H37.13V.12H35.756Z" transform="translate(17.288 0.062)" fill="#fff"/>
            <path id="패스_14230" data-name="패스 14230" d="M48.129.12a3.909,3.909,0,1,0,0,7.818l.065.009H49.5V6.2H48.129a2.162,2.162,0,1,1,0-4.323H49.5V.12H48.129Z" transform="translate(24.003 0.062)" fill="#fff"/>
            <path id="패스_14232" data-name="패스 14232" d="M25.736,1.877l.04,0h1.335V.123H25.8l-.065,0a3.907,3.907,0,0,0-3.911,3.9v0a3.911,3.911,0,0,0,3.911,3.911l.065.006h1.31V6.2h-1.2l-.17,0a2.167,2.167,0,0,1-1.979-1.3h3.36V3.152H23.761a2.16,2.16,0,0,1,1.975-1.274" transform="translate(11.848 0.064)" fill="#fff"/>
            <path id="패스_14234" data-name="패스 14234" d="M33.6,1.877l.04,0h1.335V.123H33.661l-.063,0a3.908,3.908,0,0,0-3.911,3.9v0a3.89,3.89,0,0,0,.654,2.162l-2.023,0-.207,0a.878.878,0,0,1-.876-.878h0V.126h-1.75v5.2a2.624,2.624,0,0,0,1.677,2.435,2.6,2.6,0,0,0,.95.182h2.231V6.2A3.9,3.9,0,0,0,33.6,7.944l.063.006h1.311V6.2h-1.2l-.171,0a2.167,2.167,0,0,1-1.979-1.3h3.36V3.152H31.623A2.162,2.162,0,0,1,33.6,1.877" transform="translate(13.834 0.064)" fill="#fff"/>
            <path id="패스_14235" data-name="패스 14235" d="M16.919,1.862h1.375V.111H16.919a3.909,3.909,0,0,0-3.91,3.9v0a3.918,3.918,0,0,0,3.91,3.92l.065.008h1.31V6.187H16.919a2.162,2.162,0,0,1-1.979-1.3H18.3V3.14H14.944a2.162,2.162,0,0,1,1.975-1.277" transform="translate(7.061 0.057)" fill="#fff"/>
            <path id="패스_14238" data-name="패스 14238" d="M44.626,2.749a2.593,2.593,0,0,0-.181-.952A2.626,2.626,0,0,0,42.01.12H39V1.873H42a.875.875,0,1,1,0,1.75H39l0,1.634V7.95h1.751V5.373H42a.876.876,0,0,1,.875.878l0,1.7h1.751l0-1.6a2.6,2.6,0,0,0-.181-.95,2.636,2.636,0,0,0-.538-.852,2.634,2.634,0,0,0,.719-1.8" transform="translate(21.174 0.062)" fill="#fff"/>
            <path id="패스_14239" data-name="패스 14239" d="M5.11,6.193a2.162,2.162,0,1,1,0-4.325H6.485V.117H5.11A3.894,3.894,0,0,0,1.751,2.055V.117H0V7.941H1.751V6A3.893,3.893,0,0,0,5.11,7.938l.065.006h1.31V6.193H5.11Z" transform="translate(0 0.06)" fill="#fff"/>
            <path id="패스_14240" data-name="패스 14240" d="M7.885.008a4.077,4.077,0,1,0,4.078,4.076A4.077,4.077,0,0,0,7.885.008m0,6.4a2.327,2.327,0,1,1,2.327-2.328A2.329,2.329,0,0,1,7.885,6.412" transform="translate(2.067 0.001)" fill="#fff"/>
            <path id="패스_14241" data-name="패스 14241" d="M37.157.12H35.5V1.879h1.655V7.947h1.751V1.879h1.649V.12h-3.4Z" transform="translate(19.272 0.062)" fill="#fff"/>
            <rect id="사각형_1372" data-name="사각형 1372" width="1.751" height="7.827" transform="translate(66.147 0.183)" fill="#fff"/>
            <path id="패스_14243" data-name="패스 14243" d="M20.249.183A2.628,2.628,0,0,0,16.67,2.617V8h1.751V6.132h1.751V8h1.751V2.56A2.628,2.628,0,0,0,20.249.183m-.077,2.45V4.387H18.421V2.633a.876.876,0,1,1,1.753,0Z" transform="translate(9.049 -0.002)" fill="#fff"/>
            <path id="패스_14250" data-name="패스 14250" d="M14.9,2.748a2.582,2.582,0,0,0-.181-.949A2.623,2.623,0,0,0,12.284.121H9.279V1.872h2.992a.876.876,0,0,1,0,1.753v0H9.279l0,1.637V7.94h1.753V5.373h1.237v0l.87.852,0,.025V7.94H14.9l0-1.588a2.634,2.634,0,0,0-.719-1.8,2.641,2.641,0,0,0,.719-1.8" transform="translate(5.037 0.063)" fill="#fff"/>
          </g>
          <g id="그룹_982" data-name="그룹 982" transform="translate(0 11.369)">
            <path id="패스_14231" data-name="패스 14231" d="M76.978,6.192a2.162,2.162,0,1,1,0-4.325h1.375V.116H76.978a3.91,3.91,0,1,0,0,7.819l.063.006h1.311V6.192H76.978Z" transform="translate(-36.678 0.063)" fill="#fff"/>
            <path id="패스_14233" data-name="패스 14233" d="M68.1,1.877l.04,0h1.335V.123H68.167l-.066,0a3.908,3.908,0,0,0-3.91,3.9v0A3.912,3.912,0,0,0,68.1,7.944l.066.006h1.308V6.2h-1.2l-.171,0a2.174,2.174,0,0,1-1.979-1.3h3.362V3.152H66.127A2.16,2.16,0,0,1,68.1,1.877" transform="translate(-41.496 0.067)" fill="#fff"/>
            <path id="패스_14236" data-name="패스 14236" d="M57.123,0A4.077,4.077,0,1,0,61.2,4.08,4.078,4.078,0,0,0,57.123,0m0,6.406A2.328,2.328,0,1,1,59.45,4.08a2.328,2.328,0,0,1-2.327,2.33" transform="translate(-47.548 0.002)" fill="#fff"/>
            <path id="패스_14237" data-name="패스 14237" d="M54.921,1.8A2.628,2.628,0,0,0,52.485.12h-3V1.873h2.992a.876.876,0,0,1,0,1.751H49.481l0,1.632V7.95h1.75V5.373h1.308A2.621,2.621,0,0,0,54.921,1.8" transform="translate(-49.481 0.065)" fill="#fff"/>
            <path id="패스_14242" data-name="패스 14242" d="M103.395.117h-1.654v1.76h1.654V7.944h1.751V1.878h1.648V.117h-3.4Z" transform="translate(-21.112 0.064)" fill="#fff"/>
            <rect id="사각형_1373" data-name="사각형 1373" width="1.751" height="7.827" transform="translate(86.031 0.177)" fill="#fff"/>
            <path id="패스_14244" data-name="패스 14244" d="M80.178.008a4.077,4.077,0,1,0,4.078,4.076A4.077,4.077,0,0,0,80.178.008m0,6.4A2.327,2.327,0,1,1,82.5,4.084a2.328,2.328,0,0,1-2.327,2.328" transform="translate(-35.031 0.004)" fill="#fff"/>
            <path id="패스_14245" data-name="패스 14245" d="M110.667.008a4.077,4.077,0,1,0,4.078,4.076A4.078,4.078,0,0,0,110.667.008m0,6.4a2.327,2.327,0,1,1,2.327-2.328,2.329,2.329,0,0,1-2.327,2.328" transform="translate(-18.482 0.004)" fill="#fff"/>
            <path id="패스_14246" data-name="패스 14246" d="M93.113,0A4.077,4.077,0,1,0,97.19,4.076,4.077,4.077,0,0,0,93.113,0m0,6.4a2.328,2.328,0,1,1,2.327-2.327A2.327,2.327,0,0,1,93.113,6.4" transform="translate(-28.01 0)" fill="#fff"/>
            <path id="패스_14247" data-name="패스 14247" d="M90.913,1.791A2.627,2.627,0,0,0,88.478.115H85.471V1.866h2.992a.877.877,0,0,1,0,1.754v0H85.471l0,1.635V7.945h1.751V5.367h1.31a2.628,2.628,0,0,0,2.378-3.576" transform="translate(-29.945 0.062)" fill="#fff"/>
            <path id="패스_14248" data-name="패스 14248" d="M101.972.185a2.627,2.627,0,0,0-3.579,2.435V8h1.751V6.131H101.9V8h1.751V2.562A2.626,2.626,0,0,0,101.972.185M101.9,2.631V4.389h-1.751V2.631a.877.877,0,0,1,1.754,0Z" transform="translate(-22.93 0.002)" fill="#fff"/>
            <path id="패스_14249" data-name="패스 14249" d="M73.469,2.749A2.592,2.592,0,0,0,73.29,1.8,2.627,2.627,0,0,0,70.853.12H67.848V1.873h2.993a.875.875,0,1,1,0,1.75H67.848l0,1.634V7.95H69.6V5.373h1.239a.875.875,0,0,1,.875.878l0,1.7h1.751V6.35a2.622,2.622,0,0,0-.719-1.8,2.615,2.615,0,0,0,.719-1.8" transform="translate(-39.511 0.065)" fill="#fff"/>
            <path id="패스_14251" data-name="패스 14251" d="M87.218,2.742A2.633,2.633,0,0,0,84.6.115H81.6V1.866h2.992v0a.876.876,0,1,1,0,1.751v0H81.6l0,1.637V7.946H83.35V5.368h1.239v0a.876.876,0,0,1,.876.876l0,1.694h1.753l0-1.594a2.622,2.622,0,0,0-.719-1.8,2.615,2.615,0,0,0,.719-1.8" transform="translate(-32.048 0.062)" fill="#fff"/>
            <path id="패스_14252" data-name="패스 14252" d="M100.148,2.742A2.638,2.638,0,0,0,97.532.115H94.527V1.866h2.992v0a.876.876,0,0,1,0,1.751v0H94.527l0,1.637V7.946h1.751V5.368h1.237l0,0a.875.875,0,0,1,.873.876V7.94h1.751l0-1.594a2.633,2.633,0,0,0-.72-1.8,2.592,2.592,0,0,0,.54-.85,2.625,2.625,0,0,0,.181-.952" transform="translate(-25.028 0.062)" fill="#fff"/>
            <path id="패스_14253" data-name="패스 14253" d="M65.189,5.048v.636a.793.793,0,0,1-1.574,0V.125h-1.75V5.684a.793.793,0,0,1-1.574,0V.125H58.541l0,5.537a2.462,2.462,0,0,0,4.2,1.745,2.461,2.461,0,0,0,4.2-1.745V.125H65.189Z" transform="translate(-44.563 0.068)" fill="#fff"/>
            <path id="패스_14254" data-name="패스 14254" d="M115.945.116V2.989A11.411,11.411,0,0,0,113.855.17c-.018-.019-.037-.035-.057-.054h-1.722V7.941h1.753V2.72A10.684,10.684,0,0,1,115.743,6.8c.043.188.085.376.119.569s.059.364.083.552l0,.022H117.7V.116Z" transform="translate(-15.503 0.063)" fill="#fff"/>
          </g>
        </g>
      </g>
      <g id="그룹_941" data-name="그룹 941" transform="translate(1.378 0.877)">
        <path id="패스_14009" data-name="패스 14009" d="M97.366,24.628l-38.816,30a25.814,25.814,0,0,0,38.816-30" transform="translate(-17.741 -7.463)" fill="#fff"/>
        <path id="패스_14010" data-name="패스 14010" d="M42.265,15.681,48.858,11.4,64.536,1.215A25.64,25.64,0,0,0,60.452.328L48.057,10.287l-5.793,4.655L31.47,22.21,5.642,39.6a25.966,25.966,0,0,0,1.9,2.645L31.269,24.093Z" transform="translate(-1.71 -0.099)" fill="#fff"/>
        <path id="패스_14011" data-name="패스 14011" d="M89.737,21.634a25.772,25.772,0,0,0-1.448-2.959l-27.4,20.862-9.77,7.439-3.818,2.411L34.877,57.229c.5.029,1,.045,1.5.045a25.956,25.956,0,0,0,4.668-.422l7.207-6.533,2.872-2.6,8.966-6.057Z" transform="translate(-10.568 -5.659)" fill="#fff"/>
        <path id="패스_14012" data-name="패스 14012" d="M41.4,10.281l3.809-2.4L57.634.044C57.141.015,56.646,0,56.147,0a25.916,25.916,0,0,0-4.642.418L44.271,6.954,41.4,9.549l-8.963,6.058L2.787,35.643A25.633,25.633,0,0,0,4.235,38.6l27.4-20.878Z" transform="translate(-0.844 0)" fill="#fff"/>
        <path id="패스_14013" data-name="패스 14013" d="M48.5,40.883,59.3,33.616,85.126,16.231a26.084,26.084,0,0,0-1.9-2.644L59.5,31.734l-11,8.409-6.6,4.287L26.229,54.617a25.855,25.855,0,0,0,4.082.887l12.4-9.963Z" transform="translate(-7.947 -4.117)" fill="#fff"/>
        <path id="패스_14014" data-name="패스 14014" d="M43.389,21.559,52.133,15.8,70.38,3.769a25.621,25.621,0,0,0-3.345-1.508L51.482,14.473l-8.093,6.354-11,7.374L9.352,43.636a25.81,25.81,0,0,0,2.338,2.315L32.553,29.9Z" transform="translate(-2.834 -0.685)" fill="#fff"/>
        <path id="패스_14015" data-name="패스 14015" d="M44.774,27.778,55.02,20.96,75.626,7.247a25.865,25.865,0,0,0-2.8-1.953L54.577,19.439l-9.8,7.6L34.527,33.86l-20.6,13.718a25.853,25.853,0,0,0,2.8,1.953L34.97,35.382Z" transform="translate(-4.219 -1.604)" fill="#fff"/>
        <path id="패스_14016" data-name="패스 14016" d="M46.451,34.227l11-7.371L80.489,11.427a25.975,25.975,0,0,0-2.336-2.315L57.285,25.156l-10.833,8.33L37.7,39.258,19.459,51.292A25.673,25.673,0,0,0,22.8,52.8L38.356,40.585Z" transform="translate(-5.896 -2.761)" fill="#fff"/>
        <path id="패스_14017" data-name="패스 14017" d="M25.808,0A25.823,25.823,0,0,0,1.485,34.455l38.81-30A25.679,25.679,0,0,0,25.808,0" transform="translate(0 0)" fill="#fff"/>
      </g>
    </g>
  </g>
</svg>
