<svg xmlns="http://www.w3.org/2000/svg" width="84.964" height="79.71" viewBox="0 0 84.964 79.71">
  <g id="CI" transform="translate(6.184 -0.876)">
    <g id="그룹_943" data-name="그룹 943" transform="translate(-6.183 0.876)">
      <g id="그룹_942" data-name="그룹 942" transform="translate(0 58.202)">
        <path id="패스_14006" data-name="패스 14006" d="M30.5,80.957a7.878,7.878,0,0,0-6.7,3.723V80.96H18.153l-.85,0A7.882,7.882,0,0,0,10.775,84.4v-3.44H5.932V96.681h4.843V93.242A7.878,7.878,0,0,0,17.3,96.688l.428,0H23.8V92.965a7.876,7.876,0,0,0,6.7,3.723l.428,0h8.155V92.431H30.84l.01.006a3.6,3.6,0,0,1-2.9-1.486h11.14V86.7H27.957a3.588,3.588,0,0,1,2.892-1.472l.546-.007h7.689V80.96H31.351ZM17.641,92.431l.009.006a3.607,3.607,0,0,1,0-7.214l.547-.007h5.3a7.823,7.823,0,0,0,0,7.214Z" transform="translate(-5.932 -80.725)" fill="#fff"/>
        <path id="패스_14007" data-name="패스 14007" d="M93.246,81.172l-.293-.073a16.044,16.044,0,0,0-7.443.014l-.213.052a7.875,7.875,0,0,0-4.58,3.3V80.9H72.135a7.87,7.87,0,0,0-7.64,5.937A7.868,7.868,0,0,0,56.856,80.9l-.85,0H48.273V85.16h7.689l.547.006a3.607,3.607,0,0,1,3.605,3.608,3.648,3.648,0,0,1-3.6,3.6l-8.239,0v.1h0v9.7h4.844V96.63h3.313l.427,0a7.869,7.869,0,0,0,7.639-5.941,7.874,7.874,0,0,0,7.64,5.939l.428,0h8.154V93.07a7.88,7.88,0,0,0,4.58,3.3l.213.052a16.016,16.016,0,0,0,7.443.012l.293-.071a7.855,7.855,0,0,0,5.834-7.591v-.012a7.852,7.852,0,0,0-5.834-7.591m-12.931,11.2H72.474l.01,0a3.606,3.606,0,1,1,0-7.213l.546,0h7.29a7.805,7.805,0,0,0-.879,3.6l0,.012a7.812,7.812,0,0,0,.876,3.6m14.136-3.586a3.613,3.613,0,0,1-2.64,3.476c-.163.045-.332.07-.5.1a11.817,11.817,0,0,1-4.09,0L86.7,92.26a3.611,3.611,0,0,1-2.628-3.473v-.011A3.611,3.611,0,0,1,86.709,85.3c.163-.044.331-.071.5-.1a11.775,11.775,0,0,1,4.092,0l.523.106a3.61,3.61,0,0,1,2.63,3.474Z" transform="translate(-14.116 -80.669)" fill="#fff"/>
      </g>
      <g id="그룹_941" data-name="그룹 941" transform="translate(5.355 0)">
        <path id="패스_14009" data-name="패스 14009" d="M93.83,24.628,58.55,51.891A23.463,23.463,0,0,0,93.83,24.628" transform="translate(-21.459 -9.026)" fill="#e60012"/>
        <path id="패스_14010" data-name="패스 14010" d="M38.928,14.282l5.993-3.893,14.25-9.255A23.3,23.3,0,0,0,55.459.328L44.193,9.379l-5.265,4.23-9.812,6.607L5.642,36.025a23.6,23.6,0,0,0,1.727,2.4l21.566-16.5Z" transform="translate(-2.068 -0.12)" fill="#e60012"/>
        <path id="패스_14011" data-name="패스 14011" d="M84.74,21.364a23.423,23.423,0,0,0-1.316-2.689l-24.9,18.961L49.643,44.4l-3.47,2.191-11.3,7.128c.451.026.9.041,1.362.041a23.592,23.592,0,0,0,4.243-.384l6.55-5.938,2.611-2.365,8.149-5.505Z" transform="translate(-12.783 -6.844)" fill="#e60012"/>
        <path id="패스_14012" data-name="패스 14012" d="M37.882,9.344l3.462-2.184L52.638.04C52.19.014,51.739,0,51.286,0a23.555,23.555,0,0,0-4.219.38L40.492,6.321l-2.61,2.359-8.147,5.506L2.787,32.4A23.3,23.3,0,0,0,4.1,35.084l24.9-18.976Z" transform="translate(-1.021 0.001)" fill="#e60012"/>
        <path id="패스_14013" data-name="패스 14013" d="M46.474,38.4l9.811-6.6,23.476-15.8a23.711,23.711,0,0,0-1.726-2.4L56.468,30.081l-9.994,7.643-6,3.9L26.229,50.879a23.5,23.5,0,0,0,3.71.806L41.206,42.63Z" transform="translate(-9.613 -4.979)" fill="#e60012"/>
        <path id="패스_14014" data-name="패스 14014" d="M40.288,19.8l7.947-5.238L64.82,3.632a23.288,23.288,0,0,0-3.04-1.371l-14.136,11.1-7.356,5.775-10,6.7L9.352,39.867a23.459,23.459,0,0,0,2.125,2.1L30.439,27.379Z" transform="translate(-3.428 -0.828)" fill="#e60012"/>
        <path id="패스_14015" data-name="패스 14015" d="M41.964,25.729l9.312-6.2L70,7.069A23.509,23.509,0,0,0,67.46,5.294L50.874,18.15l-8.91,6.907-9.314,6.2L13.924,43.726A23.5,23.5,0,0,0,16.471,45.5L33.052,32.641Z" transform="translate(-5.103 -1.94)" fill="#e60012"/>
        <path id="패스_14016" data-name="패스 14016" d="M43.992,31.939l10-6.7L74.929,11.216a23.608,23.608,0,0,0-2.123-2.1L53.839,23.694l-9.846,7.572-7.951,5.245L19.459,47.449A23.334,23.334,0,0,0,22.5,48.82l14.135-11.1Z" transform="translate(-7.132 -3.339)" fill="#e60012"/>
        <path id="패스_14017" data-name="패스 14017" d="M23.457,0A23.471,23.471,0,0,0,1.35,31.316L36.624,4.046A23.34,23.34,0,0,0,23.457,0" transform="translate(0 0.001)" fill="#e60012"/>
      </g>
    </g>
  </g>
</svg>
