<svg id="그룹_1051" data-name="그룹 1051" xmlns="http://www.w3.org/2000/svg" xmlns:xlink="http://www.w3.org/1999/xlink" width="240.937" height="34.149" viewBox="0 0 240.937 34.149">
  <defs>
    <clipPath id="clip-path">
      <rect id="사각형_1505" data-name="사각형 1505" width="240.937" height="34.149" fill="none"/>
    </clipPath>
  </defs>
  <g id="그룹_1050" data-name="그룹 1050" clip-path="url(#clip-path)">
    <path id="패스_14291" data-name="패스 14291" d="M31.5,0a14.624,14.624,0,0,0-8.4,2.645A14.7,14.7,0,1,0,14.7,29.4a14.618,14.618,0,0,0,8.4-2.646A14.7,14.7,0,1,0,31.5,0" fill="#fff"/>
    <path id="패스_14292" data-name="패스 14292" d="M49.795,11.645,27.685,28.732a14.705,14.705,0,0,0,22.11-17.087" transform="translate(-4.439 -1.867)" fill="#e50019"/>
    <path id="패스_14293" data-name="패스 14293" d="M23.528,8.9l3.756-2.439,8.93-5.8A14.6,14.6,0,0,0,33.888.155l-7.06,5.673-3.3,2.652-6.149,4.14L2.667,22.527a15,15,0,0,0,1.082,1.506l13.516-10.34Z" transform="translate(-0.428 -0.025)" fill="#e50019"/>
    <path id="패스_14294" data-name="패스 14294" d="M47.74,10.515a14.556,14.556,0,0,0-.825-1.685l-15.6,11.883-5.565,4.238L23.57,26.323,16.491,30.79c.283.016.567.026.854.026A14.769,14.769,0,0,0,20,30.575l4.105-3.721,1.636-1.483,5.107-3.451Z" transform="translate(-2.644 -1.416)" fill="#e50019"/>
    <path id="패스_14295" data-name="패스 14295" d="M25.089,21.972l6.149-4.14,14.712-9.9a14.645,14.645,0,0,0-1.082-1.506L31.352,16.761,25.089,21.55l-3.758,2.442L12.4,29.8a14.676,14.676,0,0,0,2.325.5l7.061-5.674Z" transform="translate(-1.989 -1.03)" fill="#e50019"/>
    <path id="패스_14296" data-name="패스 14296" d="M23.81,12.061l4.98-3.283,10.394-6.85a14.682,14.682,0,0,0-1.905-.859L28.419,8.025l-4.61,3.62-6.268,4.2L4.422,24.637a14.617,14.617,0,0,0,1.332,1.318L17.637,16.81Z" transform="translate(-0.709 -0.171)" fill="#e50019"/>
    <path id="패스_14297" data-name="패스 14297" d="M24.156,15.31l5.836-3.883L41.73,3.616a14.84,14.84,0,0,0-1.6-1.112L29.74,10.561l-5.584,4.328L18.32,18.775,6.583,26.589a14.728,14.728,0,0,0,1.6,1.113l10.392-8.06Z" transform="translate(-1.056 -0.401)" fill="#e50019"/>
    <path id="패스_14298" data-name="패스 14298" d="M24.576,18.614l6.267-4.2,13.12-8.789a14.827,14.827,0,0,0-1.331-1.318L30.747,13.448l-6.171,4.745-4.983,3.286L9.2,28.334a14.575,14.575,0,0,0,1.905.86l8.858-6.958Z" transform="translate(-1.475 -0.691)" fill="#e50019"/>
    <path id="패스_14299" data-name="패스 14299" d="M14.7,0A14.708,14.708,0,0,0,.846,19.625L22.952,2.536A14.622,14.622,0,0,0,14.7,0" fill="#e50019"/>
    <path id="패스_14300" data-name="패스 14300" d="M23.312,5.857l2.17-1.368L32.559.025C32.279.009,32,0,31.712,0a14.754,14.754,0,0,0-2.644.238l-4.12,3.723L23.312,5.44,18.206,8.89,1.317,20.3a14.7,14.7,0,0,0,.825,1.685L17.749,10.1Z" transform="translate(-0.211)" fill="#e50019"/>
    <path id="패스_14301" data-name="패스 14301" d="M98.71,4.555a11.224,11.224,0,0,0-9.549,5.306v-5.3H81.109l-1.212,0a11.233,11.233,0,0,0-9.3,4.909v-4.9h-6.9v22.4h6.9v-4.9a11.234,11.234,0,0,0,9.3,4.91l.61,0h8.654V21.667a11.222,11.222,0,0,0,9.549,5.307l.61,0h11.623V20.908H99.193l.013.008a5.128,5.128,0,0,1-4.15-2.118h15.887V12.734H95.07a5.126,5.126,0,0,1,4.135-2.1l.779-.012h10.958V4.558H99.921ZM80.381,20.908l.013.008a5.141,5.141,0,0,1,0-10.282l.779-.012h7.551a11.151,11.151,0,0,0,0,10.285Z" transform="translate(-10.212 -0.73)" fill="#003e92"/>
    <path id="패스_14302" data-name="패스 14302" d="M185.77,4.877l-.418-.1a22.85,22.85,0,0,0-10.609.019l-.3.072a11.249,11.249,0,0,0-6.527,4.71V4.492H155.68a11.215,11.215,0,0,0-10.89,8.458A11.214,11.214,0,0,0,133.9,4.491l-1.212,0H121.671v6.066h10.958l.78.01a5.141,5.141,0,0,1,5.139,5.141,5.2,5.2,0,0,1-5.131,5.13H121.671v.14h0V34.815h6.9V26.908h4.722l.61,0a11.218,11.218,0,0,0,10.889-8.465,11.218,11.218,0,0,0,10.888,8.463l.61,0h11.623V21.835a11.241,11.241,0,0,0,6.527,4.709l.3.074a22.872,22.872,0,0,0,10.611.018l.416-.1a11.2,11.2,0,0,0,8.314-10.82V15.7a11.2,11.2,0,0,0-8.314-10.82M167.34,20.842H156.164l.012.007a5.14,5.14,0,0,1,0-10.281l.781-.008h10.389a11.128,11.128,0,0,0-1.253,5.136v.017a11.138,11.138,0,0,0,1.248,5.129m20.147-5.113a5.143,5.143,0,0,1-3.762,4.955c-.232.065-.473.1-.71.143a16.609,16.609,0,0,1-2.925.259,16.752,16.752,0,0,1-2.906-.256l-.747-.151a5.144,5.144,0,0,1-3.746-4.948v-.018a5.141,5.141,0,0,1,3.762-4.953c.232-.065.471-.1.71-.145a16.744,16.744,0,0,1,5.83,0l.748.151a5.145,5.145,0,0,1,3.746,4.95Z" transform="translate(-19.509 -0.667)" fill="#003e92"/>
    <path id="패스_14303" data-name="패스 14303" d="M231.064,15.651h1.115v-1.42h-1.115a3.168,3.168,0,1,0,0,6.337l.052.006h1.063V19.156h-1.115a1.752,1.752,0,1,1,0-3.5" transform="translate(-36.541 -2.282)" fill="#003e92"/>
    <path id="패스_14304" data-name="패스 14304" d="M249.5,20.569l.051.006h1.062V19.156H249.5a1.752,1.752,0,1,1,0-3.5h1.113V14.231H249.5a3.169,3.169,0,1,0,0,6.338" transform="translate(-39.496 -2.282)" fill="#003e92"/>
    <path id="패스_14305" data-name="패스 14305" d="M216.14,20.575l.052.006h1.061v-1.42H216.14a1.756,1.756,0,0,1-1.605-1.05h2.726V16.692h-2.72a1.751,1.751,0,0,1,1.6-1.036h1.113V14.237H216.14a3.167,3.167,0,0,0-3.17,3.165v0a3.169,3.169,0,0,0,3.17,3.17" transform="translate(-34.148 -2.283)" fill="#003e92"/>
    <path id="패스_14306" data-name="패스 14306" d="M279.244,15.656h1.113V14.237h-1.113a3.168,3.168,0,0,0-3.17,3.165v0a3.169,3.169,0,0,0,3.17,3.17l.052.006h1.061v-1.42h-1.113a1.755,1.755,0,0,1-1.605-1.05h2.725v-1.42h-2.72a1.75,1.75,0,0,1,1.6-1.035" transform="translate(-44.266 -2.283)" fill="#003e92"/>
    <path id="패스_14307" data-name="패스 14307" d="M226.117,17.4v-.71h-2.722a1.751,1.751,0,0,1,1.6-1.036h1.115V14.237H225a3.167,3.167,0,0,0-3.168,3.165v0a3.148,3.148,0,0,0,.529,1.752h-1.807a.712.712,0,0,1-.71-.711h0V14.238h-1.418v4.218a2.136,2.136,0,0,0,2.13,2.119h1.807V19.158A3.172,3.172,0,0,0,225,20.575l.053.006h1.062V19.162H225a1.752,1.752,0,0,1-1.6-1.05h2.726Z" transform="translate(-35.022 -2.283)" fill="#003e92"/>
    <path id="패스_14308" data-name="패스 14308" d="M266.081,17.364a3.3,3.3,0,1,0-3.3,3.3,3.3,3.3,0,0,0,3.3-3.3m-5.191,0a1.886,1.886,0,1,1,1.886,1.887,1.887,1.887,0,0,1-1.886-1.887" transform="translate(-41.604 -2.254)" fill="#003e92"/>
    <path id="패스_14309" data-name="패스 14309" d="M254.163,17.07l0,1.325v2.184h1.42v-2.09h1.06a2.128,2.128,0,0,0,1.929-1.357,2.107,2.107,0,0,0,0-1.542,2.131,2.131,0,0,0-1.975-1.359h-2.435v1.42h2.424a.71.71,0,0,1,0,1.421v0Z" transform="translate(-40.753 -2.282)" fill="#003e92"/>
    <path id="패스_14310" data-name="패스 14310" d="M240.985,14.231h-2.426V15.65h2.426a.71.71,0,0,1,0,1.421v0h-2.426l0,1.325v2.184h1.421v-2.09h1a.711.711,0,0,1,.71.71l0,1.375h1.42l0-1.293a2.1,2.1,0,0,0-.146-.771,2.173,2.173,0,0,0-.436-.69,2.138,2.138,0,0,0,.436-.689,2.106,2.106,0,0,0,0-1.542A2.129,2.129,0,0,0,241,14.231Z" transform="translate(-38.251 -2.282)" fill="#003e92"/>
    <path id="패스_14311" data-name="패스 14311" d="M236.1,20.576V15.658h1.337V14.231h-4.1v1.427h1.342v4.918Z" transform="translate(-37.414 -2.282)" fill="#003e92"/>
    <rect id="사각형_1503" data-name="사각형 1503" width="1.418" height="6.344" transform="translate(205.149 11.949)" fill="#003e92"/>
    <path id="패스_14312" data-name="패스 14312" d="M285.494,17.821a2.149,2.149,0,0,0,.437-.689,2.13,2.13,0,0,0-1.973-2.9h-2.437V15.65h2.425a.71.71,0,1,1,0,1.421v0h-2.425l0,1.326v2.184h1.419v-2.09h1a.711.711,0,0,1,.71.71v1.375h1.42V19.282a2.114,2.114,0,0,0-.145-.771,2.157,2.157,0,0,0-.437-.69" transform="translate(-45.14 -2.282)" fill="#003e92"/>
    <path id="패스_14313" data-name="패스 14313" d="M269.655,20.725a2,2,0,0,0,1.409-.582,1.994,1.994,0,0,0,3.4-1.413v-4.49h-1.42v4.506a.642.642,0,0,1-1.275,0V14.239h-1.42v4.506a.642.642,0,0,1-1.274,0V14.239h-1.419v4.49a2,2,0,0,0,2,2" transform="translate(-42.917 -2.283)" fill="#003e92"/>
    <path id="패스_14314" data-name="패스 14314" d="M216.138,28.8a1.753,1.753,0,1,1,0-3.506h1.115V23.875h-1.115a3.169,3.169,0,1,0,0,6.339l.052,0h1.063V28.8h-1.115Z" transform="translate(-34.148 -3.828)" fill="#003e92"/>
    <path id="패스_14315" data-name="패스 14315" d="M255.677,25.3h1.342v4.919h1.42V25.3h1.337V23.877h-4.1Z" transform="translate(-40.996 -3.829)" fill="#003e92"/>
    <rect id="사각형_1504" data-name="사각형 1504" width="1.42" height="6.344" transform="translate(219.062 20.044)" fill="#003e92"/>
    <path id="패스_14316" data-name="패스 14316" d="M220.79,23.712a3.305,3.305,0,1,0,3.307,3.307,3.306,3.306,0,0,0-3.307-3.307m0,5.192a1.887,1.887,0,1,1,1.888-1.886A1.886,1.886,0,0,1,220.79,28.9" transform="translate(-34.872 -3.802)" fill="#003e92"/>
    <path id="패스_14317" data-name="패스 14317" d="M266.2,23.712a3.305,3.305,0,1,0,3.3,3.307,3.306,3.306,0,0,0-3.3-3.307m0,5.192a1.887,1.887,0,1,1,1.886-1.886A1.888,1.888,0,0,1,266.2,28.9" transform="translate(-42.153 -3.802)" fill="#003e92"/>
    <path id="패스_14318" data-name="패스 14318" d="M240.06,23.7a3.3,3.3,0,1,0,3.3,3.3,3.306,3.306,0,0,0-3.3-3.3m0,5.192a1.887,1.887,0,1,1,1.885-1.887,1.887,1.887,0,0,1-1.885,1.887" transform="translate(-37.961 -3.8)" fill="#003e92"/>
    <path id="패스_14319" data-name="패스 14319" d="M235.856,25.232a2.131,2.131,0,0,0-1.975-1.359h-2.437v1.419h2.426a.71.71,0,0,1,0,1.421v0h-2.426l0,1.325v2.184h1.42v-2.09h1.06a2.129,2.129,0,0,0,1.929-1.357,2.106,2.106,0,0,0,0-1.542" transform="translate(-37.11 -3.828)" fill="#003e92"/>
    <path id="패스_14320" data-name="패스 14320" d="M253.591,23.853a2.13,2.13,0,0,0-2.9,1.974V30.19h1.421V28.674h1.418V30.19h1.42V25.782a2.128,2.128,0,0,0-1.358-1.929m-.062,1.986v1.422h-1.418V25.839a.71.71,0,1,1,1.42,0Z" transform="translate(-40.196 -3.801)" fill="#003e92"/>
    <path id="패스_14321" data-name="패스 14321" d="M230.229,26a2.1,2.1,0,0,0-.146-.771,2.127,2.127,0,0,0-1.972-1.359h-2.438v1.419H228.1a.711.711,0,0,1,0,1.422v0h-2.426l0,1.326v2.182H227.1V28.132h1a.711.711,0,0,1,.71.71v1.375h1.418l0-1.293a2.1,2.1,0,0,0-.146-.772,2.132,2.132,0,0,0-.436-.689,2.123,2.123,0,0,0,.436-.689,2.1,2.1,0,0,0,.146-.771" transform="translate(-36.185 -3.828)" fill="#003e92"/>
    <path id="패스_14322" data-name="패스 14322" d="M249.488,26a2.1,2.1,0,0,0-.146-.771,2.127,2.127,0,0,0-1.972-1.359h-2.438v1.419h2.426a.711.711,0,0,1,0,1.422v0h-2.426l0,1.326v2.182h1.419V28.132h1a.711.711,0,0,1,.71.71v1.375h1.418l0-1.293a2.1,2.1,0,0,0-.146-.772,2.132,2.132,0,0,0-.436-.689,2.123,2.123,0,0,0,.436-.689,2.1,2.1,0,0,0,.146-.771" transform="translate(-39.273 -3.828)" fill="#003e92"/>
    <path id="패스_14323" data-name="패스 14323" d="M274.209,26.2a9.282,9.282,0,0,0-1.694-2.285l-.045-.044h-1.4v6.344h1.42V25.987a8.677,8.677,0,0,1,1.555,3.3c.034.152.067.3.095.461s.048.3.067.447a.077.077,0,0,0,0,.019h1.417V23.875h-1.418Z" transform="translate(-43.464 -3.828)" fill="#003e92"/>
    <path id="패스_14324" data-name="패스 14324" d="M235.765,10.874l.052.007h1.063V9.453h-1.115a1.754,1.754,0,0,1-1.6-1.05h2.726V6.982h-2.722a1.752,1.752,0,0,1,1.6-1.035h1.115V4.528h-1.115A3.167,3.167,0,0,0,232.6,7.693v0a3.176,3.176,0,0,0,3.168,3.178" transform="translate(-37.295 -0.726)" fill="#003e92"/>
    <path id="패스_14325" data-name="패스 14325" d="M214.638,9.3a3.156,3.156,0,0,0,2.722,1.572l.053.005h1.062V9.461H217.36a1.752,1.752,0,1,1,0-3.5h1.115V4.536H217.36a3.156,3.156,0,0,0-2.722,1.57V4.536h-1.42v6.34h1.42Z" transform="translate(-34.188 -0.727)" fill="#003e92"/>
    <path id="패스_14326" data-name="패스 14326" d="M222.194,10.984a3.3,3.3,0,1,0-3.3-3.3,3.3,3.3,0,0,0,3.3,3.3m0-5.192a1.887,1.887,0,1,1-1.886,1.887,1.886,1.886,0,0,1,1.886-1.887" transform="translate(-35.097 -0.701)" fill="#003e92"/>
    <path id="패스_14327" data-name="패스 14327" d="M239.468,9.332h1.418v1.517h1.421V6.439a2.13,2.13,0,0,0-4.259.045v4.365h1.42Zm0-2.836a.711.711,0,0,1,1.422,0h0V7.919h-1.418Z" transform="translate(-38.169 -0.7)" fill="#003e92"/>
    <path id="패스_14328" data-name="패스 14328" d="M227.038,7.381l0,1.325v2.175h1.418V8.8h1a.71.71,0,0,1,.71.71v1.369h1.419l0-1.288a2.134,2.134,0,0,0-.583-1.46,2.129,2.129,0,0,0-1.537-3.59h-2.437V5.961h2.426a.71.71,0,0,1,0,1.421v0Z" transform="translate(-36.404 -0.728)" fill="#003e92"/>
  </g>
</svg>
