<svg id="그룹_1322" data-name="그룹 1322" xmlns="http://www.w3.org/2000/svg" width="169.119" height="31.995" viewBox="0 0 169.119 31.995">
  <g id="그룹_1323" data-name="그룹 1323">
    <path id="패스_14292" data-name="패스 14292" d="M50.993,11.645,27.685,29.658A15.5,15.5,0,0,0,50.993,11.645" transform="translate(-3.18 -1.338)" fill="#e50019"/>
    <path id="패스_14293" data-name="패스 14293" d="M24.658,9.374,28.618,6.8,38.031.688A15.385,15.385,0,0,0,35.579.155l-7.442,5.98-3.479,2.8-6.482,4.365L2.667,23.739a15.811,15.811,0,0,0,1.141,1.588l14.248-10.9Z" transform="translate(-0.306 -0.018)" fill="#e50019"/>
    <path id="패스_14294" data-name="패스 14294" d="M49.432,10.606a15.344,15.344,0,0,0-.869-1.776L32.114,21.357l-5.867,4.467-2.293,1.447L16.491,31.98c.3.017.6.027.9.027a15.569,15.569,0,0,0,2.8-.254l4.327-3.922,1.725-1.563L31.63,22.63Z" transform="translate(-1.894 -1.014)" fill="#e50019"/>
    <path id="패스_14295" data-name="패스 14295" d="M25.776,22.814l6.482-4.364L47.768,8.012a15.438,15.438,0,0,0-1.141-1.588l-14.248,10.9-6.6,5.049-3.962,2.574L12.4,31.061a15.471,15.471,0,0,0,2.451.532L22.3,25.611Z" transform="translate(-1.424 -0.738)" fill="#e50019"/>
    <path id="패스_14296" data-name="패스 14296" d="M24.86,12.656,30.11,9.2,41.067,1.974a15.478,15.478,0,0,0-2.008-.905L29.719,8.4,24.86,12.217l-6.608,4.427L4.422,25.913a15.409,15.409,0,0,0,1.4,1.39l12.527-9.64Z" transform="translate(-0.508 -0.123)" fill="#e50019"/>
    <path id="패스_14297" data-name="패스 14297" d="M25.108,16,31.26,11.91,43.634,3.676A15.643,15.643,0,0,0,41.951,2.5L30.994,11,25.108,15.56l-6.153,4.1L6.583,27.893a15.526,15.526,0,0,0,1.683,1.173l10.955-8.5Z" transform="translate(-0.756 -0.288)" fill="#e50019"/>
    <path id="패스_14298" data-name="패스 14298" d="M25.409,19.389l6.607-4.426L45.847,5.7a15.631,15.631,0,0,0-1.4-1.39L31.915,13.943l-6.506,5-5.253,3.464L9.2,29.636a15.365,15.365,0,0,0,2.008.906l9.338-7.335Z" transform="translate(-1.057 -0.495)" fill="#e50019"/>
    <path id="패스_14299" data-name="패스 14299" d="M15.5,0A15.5,15.5,0,0,0,.892,20.688L24.2,2.673A15.414,15.414,0,0,0,15.5,0" fill="#e50019"/>
    <path id="패스_14300" data-name="패스 14300" d="M24.5,6.174,26.79,4.732,34.251.027C33.956.01,33.657,0,33.358,0a15.554,15.554,0,0,0-2.787.251L26.228,4.176,24.5,5.735,19.121,9.372,1.317,21.4a15.492,15.492,0,0,0,.87,1.776L18.639,10.642Z" transform="translate(-0.151)" fill="#e50019"/>
    <path id="패스_14301" data-name="패스 14301" d="M96.03,4.555a10.365,10.365,0,0,0-8.818,4.9v-4.9H79.776l-1.119,0a10.374,10.374,0,0,0-8.591,4.533V4.562H63.691V25.25h6.375V20.725a10.375,10.375,0,0,0,8.592,4.535l.563,0h7.991v-4.9a10.363,10.363,0,0,0,8.818,4.9l.563,0h10.733v-5.6H96.476l.012.008a4.735,4.735,0,0,1-3.833-1.956h14.672v-5.6H92.669a4.733,4.733,0,0,1,3.819-1.939l.72-.011h10.119v-5.6H97.149ZM79.1,19.657l.012.008a4.747,4.747,0,0,1,0-9.495l.72-.011h6.973a10.3,10.3,0,0,0,0,9.5Z" transform="translate(-6.403 -0.563)" fill="#fff"/>
    <path id="패스_14302" data-name="패스 14302" d="M180.865,4.822l-.386-.094a21.1,21.1,0,0,0-9.8.018l-.28.067a10.388,10.388,0,0,0-6.027,4.349v-4.7h-11.3a10.357,10.357,0,0,0-10.056,7.811,10.356,10.356,0,0,0-10.054-7.812l-1.119,0H121.67v5.6h10.119l.72.009a4.748,4.748,0,0,1,4.746,4.748,4.8,4.8,0,0,1-4.739,4.738H121.67V19.7h0V32.47h6.375v-7.3H132.4l.563,0a10.36,10.36,0,0,0,10.056-7.817,10.36,10.36,0,0,0,10.055,7.815l.564,0h10.733V20.483a10.38,10.38,0,0,0,6.027,4.348l.28.068a21.122,21.122,0,0,0,9.8.017l.385-.095a10.339,10.339,0,0,0,7.678-9.992v-.016a10.339,10.339,0,0,0-7.678-9.992m-17.02,14.744H153.524l.011.006a4.747,4.747,0,0,1,0-9.494l.721-.007h9.594a10.276,10.276,0,0,0-1.157,4.743v.016a10.285,10.285,0,0,0,1.152,4.736m18.605-4.721a4.749,4.749,0,0,1-3.474,4.576c-.214.06-.437.093-.656.132a15.339,15.339,0,0,1-2.7.24,15.47,15.47,0,0,1-2.684-.236l-.69-.14a4.751,4.751,0,0,1-3.459-4.569V14.83a4.748,4.748,0,0,1,3.474-4.574c.214-.06.435-.095.656-.134a15.463,15.463,0,0,1,5.384,0l.691.14a4.751,4.751,0,0,1,3.459,4.571Z" transform="translate(-19.424 -0.475)" fill="#fff"/>
  </g>
</svg>
